<mxfile host="app.diagrams.net" modified="2023-10-17T08:20:20.610Z" agent="Mozilla/5.0 (Windows NT 10.0; Win64; x64) AppleWebKit/537.36 (KHTML, like Gecko) Chrome/101.0.4951.54 Safari/537.36" version="22.0.4" etag="EVFQN8CexAdXel5UVnSB" type="github">
  <diagram name="Page-1" id="vinRKsyxXoLTsOsTNzst">
    <mxGraphModel>
      <root>
        <mxCell id="0" />
        <mxCell id="1" parent="0" />
      </root>
    </mxGraphModel>
  </diagram>
</mxfile>
